<mxfile host="Electron" modified="2024-05-02T01:21:49.641Z" agent="Mozilla/5.0 (Windows NT 10.0; Win64; x64) AppleWebKit/537.36 (KHTML, like Gecko) draw.io/24.2.5 Chrome/120.0.6099.109 Electron/28.1.0 Safari/537.36" etag="u7zpEebfyIKuizLgesaX" version="24.2.5" type="device">
  <diagram name="Page-1" id="5XaCX_0Hstlx5IshGPiD">
    <mxGraphModel dx="2405" dy="1831" grid="1" gridSize="10" guides="1" tooltips="1" connect="1" arrows="1" fold="1" page="1" pageScale="1" pageWidth="850" pageHeight="1100" math="0" shadow="0">
      <root>
        <mxCell id="0" />
        <mxCell id="1" parent="0" />
        <mxCell id="WBOdHLledQL_smcE1slE-1" value="&lt;span style=&quot;font-size:14.0pt;font-family:&amp;quot;Arial&amp;quot;,sans-serif;&lt;br/&gt;mso-fareast-font-family:Arial;position:relative;top:.5pt;mso-text-raise:-.5pt;&lt;br/&gt;mso-ansi-language:EN-US;mso-fareast-language:EN-US;mso-bidi-language:AR-EG&quot;&gt;Airline&lt;/span&gt;" style="rounded=0;whiteSpace=wrap;html=1;" vertex="1" parent="1">
          <mxGeometry x="30" y="40" width="120" height="60" as="geometry" />
        </mxCell>
        <mxCell id="WBOdHLledQL_smcE1slE-2" value="AirID" style="ellipse;whiteSpace=wrap;html=1;align=center;fontStyle=4;" vertex="1" parent="1">
          <mxGeometry x="-140" y="50" width="100" height="40" as="geometry" />
        </mxCell>
        <mxCell id="WBOdHLledQL_smcE1slE-3" value="Phone" style="ellipse;whiteSpace=wrap;html=1;align=center;" vertex="1" parent="1">
          <mxGeometry x="110" y="-40" width="100" height="40" as="geometry" />
        </mxCell>
        <mxCell id="WBOdHLledQL_smcE1slE-4" value="Name" style="ellipse;whiteSpace=wrap;html=1;align=center;" vertex="1" parent="1">
          <mxGeometry x="-140" y="-10" width="100" height="40" as="geometry" />
        </mxCell>
        <mxCell id="WBOdHLledQL_smcE1slE-5" value="address" style="ellipse;whiteSpace=wrap;html=1;align=center;" vertex="1" parent="1">
          <mxGeometry x="-90" y="-60" width="100" height="40" as="geometry" />
        </mxCell>
        <mxCell id="WBOdHLledQL_smcE1slE-6" value="Contact_Person" style="ellipse;whiteSpace=wrap;html=1;align=center;" vertex="1" parent="1">
          <mxGeometry x="10" y="-60" width="100" height="40" as="geometry" />
        </mxCell>
        <mxCell id="WBOdHLledQL_smcE1slE-9" value="" style="endArrow=none;html=1;rounded=0;entryX=1;entryY=0.5;entryDx=0;entryDy=0;exitX=0;exitY=0.5;exitDx=0;exitDy=0;" edge="1" parent="1" source="WBOdHLledQL_smcE1slE-1" target="WBOdHLledQL_smcE1slE-2">
          <mxGeometry width="50" height="50" relative="1" as="geometry">
            <mxPoint y="240" as="sourcePoint" />
            <mxPoint x="50" y="190" as="targetPoint" />
          </mxGeometry>
        </mxCell>
        <mxCell id="WBOdHLledQL_smcE1slE-10" value="" style="endArrow=none;html=1;rounded=0;entryX=1;entryY=0.5;entryDx=0;entryDy=0;exitX=0;exitY=0.25;exitDx=0;exitDy=0;" edge="1" parent="1" source="WBOdHLledQL_smcE1slE-1" target="WBOdHLledQL_smcE1slE-4">
          <mxGeometry width="50" height="50" relative="1" as="geometry">
            <mxPoint y="240" as="sourcePoint" />
            <mxPoint x="50" y="190" as="targetPoint" />
          </mxGeometry>
        </mxCell>
        <mxCell id="WBOdHLledQL_smcE1slE-11" value="" style="endArrow=none;html=1;rounded=0;entryX=0.598;entryY=1.02;entryDx=0;entryDy=0;exitX=0.5;exitY=0;exitDx=0;exitDy=0;entryPerimeter=0;" edge="1" parent="1" source="WBOdHLledQL_smcE1slE-1" target="WBOdHLledQL_smcE1slE-6">
          <mxGeometry width="50" height="50" relative="1" as="geometry">
            <mxPoint x="40" y="65" as="sourcePoint" />
            <mxPoint x="-30" y="20" as="targetPoint" />
          </mxGeometry>
        </mxCell>
        <mxCell id="WBOdHLledQL_smcE1slE-12" value="" style="endArrow=none;html=1;rounded=0;entryX=1;entryY=0.5;entryDx=0;entryDy=0;exitX=0.25;exitY=0;exitDx=0;exitDy=0;" edge="1" parent="1" source="WBOdHLledQL_smcE1slE-1">
          <mxGeometry width="50" height="50" relative="1" as="geometry">
            <mxPoint x="50" y="25" as="sourcePoint" />
            <mxPoint x="-20" y="-20" as="targetPoint" />
          </mxGeometry>
        </mxCell>
        <mxCell id="WBOdHLledQL_smcE1slE-13" value="" style="endArrow=none;html=1;rounded=0;entryX=0.406;entryY=1.04;entryDx=0;entryDy=0;exitX=0.75;exitY=0;exitDx=0;exitDy=0;entryPerimeter=0;" edge="1" parent="1" source="WBOdHLledQL_smcE1slE-1" target="WBOdHLledQL_smcE1slE-3">
          <mxGeometry width="50" height="50" relative="1" as="geometry">
            <mxPoint x="130" y="40" as="sourcePoint" />
            <mxPoint x="60" y="-5" as="targetPoint" />
          </mxGeometry>
        </mxCell>
        <mxCell id="WBOdHLledQL_smcE1slE-14" value="Employee" style="rounded=0;whiteSpace=wrap;html=1;" vertex="1" parent="1">
          <mxGeometry x="30" y="370" width="120" height="60" as="geometry" />
        </mxCell>
        <mxCell id="WBOdHLledQL_smcE1slE-15" value="Emp_ID" style="ellipse;whiteSpace=wrap;html=1;align=center;fontStyle=4;" vertex="1" parent="1">
          <mxGeometry x="-130" y="390" width="100" height="40" as="geometry" />
        </mxCell>
        <mxCell id="WBOdHLledQL_smcE1slE-21" value="Year" style="ellipse;whiteSpace=wrap;html=1;align=center;" vertex="1" parent="1">
          <mxGeometry x="110" y="630" width="100" height="40" as="geometry" />
        </mxCell>
        <mxCell id="WBOdHLledQL_smcE1slE-22" value="Adress" style="ellipse;whiteSpace=wrap;html=1;align=center;" vertex="1" parent="1">
          <mxGeometry x="-140" y="530" width="100" height="40" as="geometry" />
        </mxCell>
        <mxCell id="WBOdHLledQL_smcE1slE-23" value="Position" style="ellipse;whiteSpace=wrap;html=1;align=center;" vertex="1" parent="1">
          <mxGeometry x="160" y="560" width="100" height="40" as="geometry" />
        </mxCell>
        <mxCell id="WBOdHLledQL_smcE1slE-24" value="Gender" style="ellipse;whiteSpace=wrap;html=1;align=center;" vertex="1" parent="1">
          <mxGeometry x="50" y="530" width="100" height="40" as="geometry" />
        </mxCell>
        <mxCell id="WBOdHLledQL_smcE1slE-25" value="Month" style="ellipse;whiteSpace=wrap;html=1;align=center;" vertex="1" parent="1">
          <mxGeometry x="-10" y="620" width="100" height="40" as="geometry" />
        </mxCell>
        <mxCell id="WBOdHLledQL_smcE1slE-26" value="Day" style="ellipse;whiteSpace=wrap;html=1;align=center;" vertex="1" parent="1">
          <mxGeometry x="-130" y="620" width="100" height="40" as="geometry" />
        </mxCell>
        <mxCell id="WBOdHLledQL_smcE1slE-27" value="BiryhDate" style="ellipse;whiteSpace=wrap;html=1;align=center;" vertex="1" parent="1">
          <mxGeometry x="-60" y="540" width="100" height="40" as="geometry" />
        </mxCell>
        <mxCell id="WBOdHLledQL_smcE1slE-28" value="Name" style="ellipse;whiteSpace=wrap;html=1;align=center;" vertex="1" parent="1">
          <mxGeometry x="-140" y="450" width="100" height="40" as="geometry" />
        </mxCell>
        <mxCell id="WBOdHLledQL_smcE1slE-32" value="Qualifications" style="ellipse;whiteSpace=wrap;html=1;align=center;" vertex="1" parent="1">
          <mxGeometry x="200" y="480" width="100" height="40" as="geometry" />
        </mxCell>
        <mxCell id="WBOdHLledQL_smcE1slE-33" value="" style="endArrow=none;html=1;rounded=0;exitX=1;exitY=0.5;exitDx=0;exitDy=0;entryX=0;entryY=0.5;entryDx=0;entryDy=0;" edge="1" parent="1" source="WBOdHLledQL_smcE1slE-15" target="WBOdHLledQL_smcE1slE-14">
          <mxGeometry width="50" height="50" relative="1" as="geometry">
            <mxPoint x="60" y="440" as="sourcePoint" />
            <mxPoint x="110" y="390" as="targetPoint" />
          </mxGeometry>
        </mxCell>
        <mxCell id="WBOdHLledQL_smcE1slE-34" value="" style="endArrow=none;html=1;rounded=0;exitX=0.97;exitY=0.25;exitDx=0;exitDy=0;entryX=0;entryY=0.75;entryDx=0;entryDy=0;exitPerimeter=0;" edge="1" parent="1" source="WBOdHLledQL_smcE1slE-28" target="WBOdHLledQL_smcE1slE-14">
          <mxGeometry width="50" height="50" relative="1" as="geometry">
            <mxPoint x="-20" y="420" as="sourcePoint" />
            <mxPoint x="40" y="410" as="targetPoint" />
          </mxGeometry>
        </mxCell>
        <mxCell id="WBOdHLledQL_smcE1slE-35" value="" style="endArrow=none;html=1;rounded=0;exitX=0.962;exitY=0.23;exitDx=0;exitDy=0;entryX=0;entryY=1;entryDx=0;entryDy=0;exitPerimeter=0;" edge="1" parent="1" target="WBOdHLledQL_smcE1slE-14">
          <mxGeometry width="50" height="50" relative="1" as="geometry">
            <mxPoint x="-83.80000000000018" y="539.2000000000003" as="sourcePoint" />
            <mxPoint x="50" y="420" as="targetPoint" />
          </mxGeometry>
        </mxCell>
        <mxCell id="WBOdHLledQL_smcE1slE-36" value="" style="endArrow=none;html=1;rounded=0;exitX=0.5;exitY=0;exitDx=0;exitDy=0;entryX=0.25;entryY=1;entryDx=0;entryDy=0;" edge="1" parent="1" source="WBOdHLledQL_smcE1slE-27" target="WBOdHLledQL_smcE1slE-14">
          <mxGeometry width="50" height="50" relative="1" as="geometry">
            <mxPoint x="-10" y="540" as="sourcePoint" />
            <mxPoint x="50" y="530" as="targetPoint" />
          </mxGeometry>
        </mxCell>
        <mxCell id="WBOdHLledQL_smcE1slE-37" value="" style="endArrow=none;html=1;rounded=0;exitX=0.5;exitY=1;exitDx=0;exitDy=0;entryX=0.734;entryY=0.1;entryDx=0;entryDy=0;entryPerimeter=0;" edge="1" parent="1" source="WBOdHLledQL_smcE1slE-27" target="WBOdHLledQL_smcE1slE-26">
          <mxGeometry width="50" height="50" relative="1" as="geometry">
            <mxPoint x="10" y="450" as="sourcePoint" />
            <mxPoint x="70" y="440" as="targetPoint" />
          </mxGeometry>
        </mxCell>
        <mxCell id="WBOdHLledQL_smcE1slE-38" value="" style="endArrow=none;html=1;rounded=0;entryX=0.738;entryY=0.96;entryDx=0;entryDy=0;entryPerimeter=0;" edge="1" parent="1" source="WBOdHLledQL_smcE1slE-25" target="WBOdHLledQL_smcE1slE-27">
          <mxGeometry width="50" height="50" relative="1" as="geometry">
            <mxPoint x="10" y="610" as="sourcePoint" />
            <mxPoint x="20" y="570" as="targetPoint" />
          </mxGeometry>
        </mxCell>
        <mxCell id="WBOdHLledQL_smcE1slE-39" value="" style="endArrow=none;html=1;rounded=0;exitX=1;exitY=0.75;exitDx=0;exitDy=0;entryX=0.298;entryY=0.08;entryDx=0;entryDy=0;entryPerimeter=0;" edge="1" parent="1" source="WBOdHLledQL_smcE1slE-14" target="WBOdHLledQL_smcE1slE-32">
          <mxGeometry width="50" height="50" relative="1" as="geometry">
            <mxPoint x="30" y="470" as="sourcePoint" />
            <mxPoint x="90" y="460" as="targetPoint" />
          </mxGeometry>
        </mxCell>
        <mxCell id="WBOdHLledQL_smcE1slE-40" value="" style="endArrow=none;html=1;rounded=0;exitX=0.898;exitY=1.047;exitDx=0;exitDy=0;entryX=0;entryY=0;entryDx=0;entryDy=0;exitPerimeter=0;" edge="1" parent="1" source="WBOdHLledQL_smcE1slE-14" target="WBOdHLledQL_smcE1slE-23">
          <mxGeometry width="50" height="50" relative="1" as="geometry">
            <mxPoint x="40" y="480" as="sourcePoint" />
            <mxPoint x="100" y="470" as="targetPoint" />
          </mxGeometry>
        </mxCell>
        <mxCell id="WBOdHLledQL_smcE1slE-41" value="" style="endArrow=none;html=1;rounded=0;entryX=0.25;entryY=0.03;entryDx=0;entryDy=0;entryPerimeter=0;exitX=0.618;exitY=1.007;exitDx=0;exitDy=0;exitPerimeter=0;" edge="1" parent="1" source="WBOdHLledQL_smcE1slE-14" target="WBOdHLledQL_smcE1slE-24">
          <mxGeometry width="50" height="50" relative="1" as="geometry">
            <mxPoint x="105" y="440" as="sourcePoint" />
            <mxPoint x="110" y="480" as="targetPoint" />
          </mxGeometry>
        </mxCell>
        <mxCell id="WBOdHLledQL_smcE1slE-42" value="" style="endArrow=none;html=1;rounded=0;entryX=0.31;entryY=-0.05;entryDx=0;entryDy=0;entryPerimeter=0;" edge="1" parent="1" target="WBOdHLledQL_smcE1slE-21">
          <mxGeometry width="50" height="50" relative="1" as="geometry">
            <mxPoint x="30" y="570" as="sourcePoint" />
            <mxPoint x="120" y="490" as="targetPoint" />
          </mxGeometry>
        </mxCell>
        <mxCell id="WBOdHLledQL_smcE1slE-43" value="AirCraft" style="rounded=0;whiteSpace=wrap;html=1;" vertex="1" parent="1">
          <mxGeometry x="805" y="40" width="120" height="60" as="geometry" />
        </mxCell>
        <mxCell id="WBOdHLledQL_smcE1slE-44" value="AirCraft_ID" style="ellipse;whiteSpace=wrap;html=1;align=center;fontStyle=4;" vertex="1" parent="1">
          <mxGeometry x="725" y="-40" width="100" height="40" as="geometry" />
        </mxCell>
        <mxCell id="WBOdHLledQL_smcE1slE-46" value="Model" style="ellipse;whiteSpace=wrap;html=1;align=center;" vertex="1" parent="1">
          <mxGeometry x="975" y="-50" width="100" height="40" as="geometry" />
        </mxCell>
        <mxCell id="WBOdHLledQL_smcE1slE-47" value="Capacity" style="ellipse;whiteSpace=wrap;html=1;align=center;" vertex="1" parent="1">
          <mxGeometry x="845" y="-60" width="100" height="40" as="geometry" />
        </mxCell>
        <mxCell id="WBOdHLledQL_smcE1slE-49" value="" style="endArrow=none;html=1;rounded=0;entryX=0.5;entryY=1;entryDx=0;entryDy=0;exitX=0.118;exitY=-0.02;exitDx=0;exitDy=0;exitPerimeter=0;" edge="1" parent="1" source="WBOdHLledQL_smcE1slE-43" target="WBOdHLledQL_smcE1slE-44">
          <mxGeometry width="50" height="50" relative="1" as="geometry">
            <mxPoint x="805" y="70" as="sourcePoint" />
            <mxPoint x="855" y="20" as="targetPoint" />
          </mxGeometry>
        </mxCell>
        <mxCell id="WBOdHLledQL_smcE1slE-50" value="" style="endArrow=none;html=1;rounded=0;entryX=0.5;entryY=1;entryDx=0;entryDy=0;exitX=0.5;exitY=0;exitDx=0;exitDy=0;" edge="1" parent="1" source="WBOdHLledQL_smcE1slE-43" target="WBOdHLledQL_smcE1slE-47">
          <mxGeometry width="50" height="50" relative="1" as="geometry">
            <mxPoint x="805" y="70" as="sourcePoint" />
            <mxPoint x="855" y="20" as="targetPoint" />
          </mxGeometry>
        </mxCell>
        <mxCell id="WBOdHLledQL_smcE1slE-51" value="" style="endArrow=none;html=1;rounded=0;entryX=0.346;entryY=1.02;entryDx=0;entryDy=0;entryPerimeter=0;exitX=1;exitY=0;exitDx=0;exitDy=0;" edge="1" parent="1" source="WBOdHLledQL_smcE1slE-43" target="WBOdHLledQL_smcE1slE-46">
          <mxGeometry width="50" height="50" relative="1" as="geometry">
            <mxPoint x="805" y="70" as="sourcePoint" />
            <mxPoint x="855" y="20" as="targetPoint" />
          </mxGeometry>
        </mxCell>
        <mxCell id="WBOdHLledQL_smcE1slE-53" value="Own" style="rhombus;whiteSpace=wrap;html=1;" vertex="1" parent="1">
          <mxGeometry x="460" y="30" width="80" height="80" as="geometry" />
        </mxCell>
        <mxCell id="WBOdHLledQL_smcE1slE-54" value="" style="endArrow=none;html=1;rounded=0;entryX=1;entryY=0.5;entryDx=0;entryDy=0;exitX=0;exitY=0.5;exitDx=0;exitDy=0;" edge="1" parent="1" source="WBOdHLledQL_smcE1slE-43" target="WBOdHLledQL_smcE1slE-53">
          <mxGeometry width="50" height="50" relative="1" as="geometry">
            <mxPoint x="625" y="350" as="sourcePoint" />
            <mxPoint x="550" y="70" as="targetPoint" />
          </mxGeometry>
        </mxCell>
        <mxCell id="WBOdHLledQL_smcE1slE-55" value="" style="endArrow=none;html=1;rounded=0;entryX=1;entryY=0.5;entryDx=0;entryDy=0;exitX=0;exitY=0.5;exitDx=0;exitDy=0;" edge="1" parent="1" source="WBOdHLledQL_smcE1slE-53" target="WBOdHLledQL_smcE1slE-1">
          <mxGeometry width="50" height="50" relative="1" as="geometry">
            <mxPoint x="400" y="70" as="sourcePoint" />
            <mxPoint x="145" y="69.17" as="targetPoint" />
          </mxGeometry>
        </mxCell>
        <mxCell id="WBOdHLledQL_smcE1slE-57" value="1" style="text;html=1;align=center;verticalAlign=middle;resizable=0;points=[];autosize=1;strokeColor=none;fillColor=none;" vertex="1" parent="1">
          <mxGeometry x="155" y="38" width="30" height="30" as="geometry" />
        </mxCell>
        <mxCell id="WBOdHLledQL_smcE1slE-59" value="M" style="text;html=1;align=center;verticalAlign=middle;resizable=0;points=[];autosize=1;strokeColor=none;fillColor=none;" vertex="1" parent="1">
          <mxGeometry x="770" y="38" width="30" height="30" as="geometry" />
        </mxCell>
        <mxCell id="WBOdHLledQL_smcE1slE-61" value="WORK" style="rhombus;whiteSpace=wrap;html=1;" vertex="1" parent="1">
          <mxGeometry x="50" y="200" width="80" height="80" as="geometry" />
        </mxCell>
        <mxCell id="WBOdHLledQL_smcE1slE-62" value="" style="endArrow=none;html=1;rounded=0;entryX=0.5;entryY=1;entryDx=0;entryDy=0;exitX=0.5;exitY=0;exitDx=0;exitDy=0;" edge="1" parent="1" source="WBOdHLledQL_smcE1slE-61" target="WBOdHLledQL_smcE1slE-1">
          <mxGeometry width="50" height="50" relative="1" as="geometry">
            <mxPoint x="280" y="370" as="sourcePoint" />
            <mxPoint x="330" y="320" as="targetPoint" />
          </mxGeometry>
        </mxCell>
        <mxCell id="WBOdHLledQL_smcE1slE-63" value="" style="endArrow=none;html=1;rounded=0;entryX=0.5;entryY=0;entryDx=0;entryDy=0;exitX=0.5;exitY=1;exitDx=0;exitDy=0;" edge="1" parent="1" source="WBOdHLledQL_smcE1slE-61" target="WBOdHLledQL_smcE1slE-14">
          <mxGeometry width="50" height="50" relative="1" as="geometry">
            <mxPoint x="90" y="260" as="sourcePoint" />
            <mxPoint x="100" y="110" as="targetPoint" />
          </mxGeometry>
        </mxCell>
        <mxCell id="WBOdHLledQL_smcE1slE-64" value="M" style="text;html=1;align=center;verticalAlign=middle;resizable=0;points=[];autosize=1;strokeColor=none;fillColor=none;" vertex="1" parent="1">
          <mxGeometry x="45" y="338" width="30" height="30" as="geometry" />
        </mxCell>
        <mxCell id="WBOdHLledQL_smcE1slE-65" value="1" style="text;html=1;align=center;verticalAlign=middle;resizable=0;points=[];autosize=1;strokeColor=none;fillColor=none;" vertex="1" parent="1">
          <mxGeometry x="55" y="98" width="30" height="30" as="geometry" />
        </mxCell>
        <mxCell id="WBOdHLledQL_smcE1slE-67" value="Route" style="rounded=0;whiteSpace=wrap;html=1;" vertex="1" parent="1">
          <mxGeometry x="805" y="380" width="120" height="60" as="geometry" />
        </mxCell>
        <mxCell id="WBOdHLledQL_smcE1slE-68" value="RouteID" style="ellipse;whiteSpace=wrap;html=1;align=center;fontStyle=4;" vertex="1" parent="1">
          <mxGeometry x="715" y="480" width="100" height="40" as="geometry" />
        </mxCell>
        <mxCell id="WBOdHLledQL_smcE1slE-69" value="Origin" style="ellipse;whiteSpace=wrap;html=1;align=center;" vertex="1" parent="1">
          <mxGeometry x="825" y="480" width="100" height="40" as="geometry" />
        </mxCell>
        <mxCell id="WBOdHLledQL_smcE1slE-70" value="Destination" style="ellipse;whiteSpace=wrap;html=1;align=center;" vertex="1" parent="1">
          <mxGeometry x="945" y="470" width="100" height="40" as="geometry" />
        </mxCell>
        <mxCell id="WBOdHLledQL_smcE1slE-71" value="Pass_Num" style="ellipse;whiteSpace=wrap;html=1;align=center;" vertex="1" parent="1">
          <mxGeometry x="975" y="140" width="100" height="40" as="geometry" />
        </mxCell>
        <mxCell id="WBOdHLledQL_smcE1slE-72" value="DepDateTime" style="ellipse;whiteSpace=wrap;html=1;align=center;" vertex="1" parent="1">
          <mxGeometry x="975" y="240" width="100" height="40" as="geometry" />
        </mxCell>
        <mxCell id="WBOdHLledQL_smcE1slE-73" value="Distance" style="ellipse;whiteSpace=wrap;html=1;align=center;" vertex="1" parent="1">
          <mxGeometry x="965" y="400" width="100" height="40" as="geometry" />
        </mxCell>
        <mxCell id="WBOdHLledQL_smcE1slE-74" value="PricePerPerson" style="ellipse;whiteSpace=wrap;html=1;align=center;" vertex="1" parent="1">
          <mxGeometry x="975" y="190" width="100" height="40" as="geometry" />
        </mxCell>
        <mxCell id="WBOdHLledQL_smcE1slE-78" value="Assigned" style="rhombus;whiteSpace=wrap;html=1;" vertex="1" parent="1">
          <mxGeometry x="825" y="180" width="80" height="80" as="geometry" />
        </mxCell>
        <mxCell id="WBOdHLledQL_smcE1slE-82" value="ArrivalTime" style="ellipse;whiteSpace=wrap;html=1;align=center;" vertex="1" parent="1">
          <mxGeometry x="975" y="290" width="100" height="40" as="geometry" />
        </mxCell>
        <mxCell id="WBOdHLledQL_smcE1slE-83" value="TimeSpent" style="ellipse;whiteSpace=wrap;html=1;align=center;" vertex="1" parent="1">
          <mxGeometry x="975" y="340" width="100" height="40" as="geometry" />
        </mxCell>
        <mxCell id="WBOdHLledQL_smcE1slE-84" value="" style="endArrow=none;html=1;rounded=0;entryX=0;entryY=0.5;entryDx=0;entryDy=0;exitX=1;exitY=0.5;exitDx=0;exitDy=0;" edge="1" parent="1" source="WBOdHLledQL_smcE1slE-78" target="WBOdHLledQL_smcE1slE-71">
          <mxGeometry width="50" height="50" relative="1" as="geometry">
            <mxPoint x="635" y="240" as="sourcePoint" />
            <mxPoint x="685" y="190" as="targetPoint" />
          </mxGeometry>
        </mxCell>
        <mxCell id="WBOdHLledQL_smcE1slE-85" value="" style="endArrow=none;html=1;rounded=0;entryX=0.5;entryY=1;entryDx=0;entryDy=0;exitX=0.5;exitY=0;exitDx=0;exitDy=0;" edge="1" parent="1" source="WBOdHLledQL_smcE1slE-78" target="WBOdHLledQL_smcE1slE-43">
          <mxGeometry width="50" height="50" relative="1" as="geometry">
            <mxPoint x="635" y="240" as="sourcePoint" />
            <mxPoint x="685" y="190" as="targetPoint" />
          </mxGeometry>
        </mxCell>
        <mxCell id="WBOdHLledQL_smcE1slE-86" value="" style="endArrow=none;html=1;rounded=0;exitX=0.5;exitY=0;exitDx=0;exitDy=0;entryX=0.5;entryY=1;entryDx=0;entryDy=0;" edge="1" parent="1" source="WBOdHLledQL_smcE1slE-67" target="WBOdHLledQL_smcE1slE-78">
          <mxGeometry width="50" height="50" relative="1" as="geometry">
            <mxPoint x="864.17" y="340" as="sourcePoint" />
            <mxPoint x="864" y="270" as="targetPoint" />
          </mxGeometry>
        </mxCell>
        <mxCell id="WBOdHLledQL_smcE1slE-87" value="" style="endArrow=none;html=1;rounded=0;entryX=0;entryY=0.5;entryDx=0;entryDy=0;exitX=1;exitY=0.5;exitDx=0;exitDy=0;" edge="1" parent="1" source="WBOdHLledQL_smcE1slE-78" target="WBOdHLledQL_smcE1slE-74">
          <mxGeometry width="50" height="50" relative="1" as="geometry">
            <mxPoint x="915" y="230" as="sourcePoint" />
            <mxPoint x="985" y="170" as="targetPoint" />
          </mxGeometry>
        </mxCell>
        <mxCell id="WBOdHLledQL_smcE1slE-88" value="" style="endArrow=none;html=1;rounded=0;entryX=0;entryY=0.5;entryDx=0;entryDy=0;exitX=1;exitY=0.5;exitDx=0;exitDy=0;" edge="1" parent="1" source="WBOdHLledQL_smcE1slE-78" target="WBOdHLledQL_smcE1slE-82">
          <mxGeometry width="50" height="50" relative="1" as="geometry">
            <mxPoint x="915" y="230" as="sourcePoint" />
            <mxPoint x="985" y="220" as="targetPoint" />
          </mxGeometry>
        </mxCell>
        <mxCell id="WBOdHLledQL_smcE1slE-89" value="" style="endArrow=none;html=1;rounded=0;entryX=0;entryY=0.5;entryDx=0;entryDy=0;exitX=1;exitY=0.5;exitDx=0;exitDy=0;" edge="1" parent="1" source="WBOdHLledQL_smcE1slE-78" target="WBOdHLledQL_smcE1slE-72">
          <mxGeometry width="50" height="50" relative="1" as="geometry">
            <mxPoint x="925" y="240" as="sourcePoint" />
            <mxPoint x="995" y="230" as="targetPoint" />
          </mxGeometry>
        </mxCell>
        <mxCell id="WBOdHLledQL_smcE1slE-90" value="" style="endArrow=none;html=1;rounded=0;entryX=0;entryY=0.5;entryDx=0;entryDy=0;exitX=1;exitY=0.5;exitDx=0;exitDy=0;" edge="1" parent="1" source="WBOdHLledQL_smcE1slE-78" target="WBOdHLledQL_smcE1slE-83">
          <mxGeometry width="50" height="50" relative="1" as="geometry">
            <mxPoint x="915" y="230" as="sourcePoint" />
            <mxPoint x="985" y="320" as="targetPoint" />
          </mxGeometry>
        </mxCell>
        <mxCell id="WBOdHLledQL_smcE1slE-93" value="" style="endArrow=none;html=1;rounded=0;entryX=0.144;entryY=1.017;entryDx=0;entryDy=0;exitX=0.5;exitY=0;exitDx=0;exitDy=0;entryPerimeter=0;" edge="1" parent="1" source="WBOdHLledQL_smcE1slE-68" target="WBOdHLledQL_smcE1slE-67">
          <mxGeometry width="50" height="50" relative="1" as="geometry">
            <mxPoint x="635" y="240" as="sourcePoint" />
            <mxPoint x="685" y="190" as="targetPoint" />
          </mxGeometry>
        </mxCell>
        <mxCell id="WBOdHLledQL_smcE1slE-95" value="" style="endArrow=none;html=1;rounded=0;entryX=0.5;entryY=0;entryDx=0;entryDy=0;exitX=0.5;exitY=1;exitDx=0;exitDy=0;" edge="1" parent="1" source="WBOdHLledQL_smcE1slE-67" target="WBOdHLledQL_smcE1slE-69">
          <mxGeometry width="50" height="50" relative="1" as="geometry">
            <mxPoint x="635" y="240" as="sourcePoint" />
            <mxPoint x="685" y="190" as="targetPoint" />
          </mxGeometry>
        </mxCell>
        <mxCell id="WBOdHLledQL_smcE1slE-97" value="" style="endArrow=none;html=1;rounded=0;entryX=0;entryY=0;entryDx=0;entryDy=0;exitX=1;exitY=1;exitDx=0;exitDy=0;" edge="1" parent="1" source="WBOdHLledQL_smcE1slE-67" target="WBOdHLledQL_smcE1slE-70">
          <mxGeometry width="50" height="50" relative="1" as="geometry">
            <mxPoint x="635" y="240" as="sourcePoint" />
            <mxPoint x="685" y="190" as="targetPoint" />
          </mxGeometry>
        </mxCell>
        <mxCell id="WBOdHLledQL_smcE1slE-98" value="M" style="text;html=1;align=center;verticalAlign=middle;resizable=0;points=[];autosize=1;strokeColor=none;fillColor=none;" vertex="1" parent="1">
          <mxGeometry x="840" y="98" width="30" height="30" as="geometry" />
        </mxCell>
        <mxCell id="WBOdHLledQL_smcE1slE-101" value="M" style="text;html=1;align=center;verticalAlign=middle;resizable=0;points=[];autosize=1;strokeColor=none;fillColor=none;" vertex="1" parent="1">
          <mxGeometry x="840" y="348" width="30" height="30" as="geometry" />
        </mxCell>
        <mxCell id="WBOdHLledQL_smcE1slE-108" value="Has Its Own" style="rhombus;whiteSpace=wrap;html=1;rotation=60;direction=south;" vertex="1" parent="1">
          <mxGeometry x="700" y="110" width="80" height="80" as="geometry" />
        </mxCell>
        <mxCell id="WBOdHLledQL_smcE1slE-111" value="Crew" style="rounded=0;whiteSpace=wrap;html=1;" vertex="1" parent="1">
          <mxGeometry x="530" y="160" width="120" height="60" as="geometry" />
        </mxCell>
        <mxCell id="WBOdHLledQL_smcE1slE-113" value="" style="endArrow=none;html=1;rounded=0;entryX=0;entryY=1;entryDx=0;entryDy=0;exitX=0;exitY=0.5;exitDx=0;exitDy=0;" edge="1" parent="1" source="WBOdHLledQL_smcE1slE-108" target="WBOdHLledQL_smcE1slE-43">
          <mxGeometry width="50" height="50" relative="1" as="geometry">
            <mxPoint x="735" y="270" as="sourcePoint" />
            <mxPoint x="785" y="220" as="targetPoint" />
          </mxGeometry>
        </mxCell>
        <mxCell id="WBOdHLledQL_smcE1slE-114" value="" style="endArrow=none;html=1;rounded=0;exitX=1;exitY=0.5;exitDx=0;exitDy=0;entryX=1;entryY=0.5;entryDx=0;entryDy=0;" edge="1" parent="1" source="WBOdHLledQL_smcE1slE-111" target="WBOdHLledQL_smcE1slE-108">
          <mxGeometry width="50" height="50" relative="1" as="geometry">
            <mxPoint x="615" y="230" as="sourcePoint" />
            <mxPoint x="785" y="220" as="targetPoint" />
          </mxGeometry>
        </mxCell>
        <mxCell id="WBOdHLledQL_smcE1slE-116" value="HostTwo" style="ellipse;whiteSpace=wrap;html=1;align=center;" vertex="1" parent="1">
          <mxGeometry x="540" y="240" width="100" height="40" as="geometry" />
        </mxCell>
        <mxCell id="WBOdHLledQL_smcE1slE-117" value="HostOne" style="ellipse;whiteSpace=wrap;html=1;align=center;" vertex="1" parent="1">
          <mxGeometry x="425" y="230" width="100" height="40" as="geometry" />
        </mxCell>
        <mxCell id="WBOdHLledQL_smcE1slE-118" value="Assistant Pilot" style="ellipse;whiteSpace=wrap;html=1;align=center;" vertex="1" parent="1">
          <mxGeometry x="425" y="180" width="100" height="40" as="geometry" />
        </mxCell>
        <mxCell id="WBOdHLledQL_smcE1slE-119" value="MajorPilot" style="ellipse;whiteSpace=wrap;html=1;align=center;" vertex="1" parent="1">
          <mxGeometry x="425" y="130" width="100" height="40" as="geometry" />
        </mxCell>
        <mxCell id="WBOdHLledQL_smcE1slE-120" value="" style="endArrow=none;html=1;rounded=0;entryX=0.5;entryY=1;entryDx=0;entryDy=0;exitX=0.5;exitY=0;exitDx=0;exitDy=0;" edge="1" parent="1" source="WBOdHLledQL_smcE1slE-116" target="WBOdHLledQL_smcE1slE-111">
          <mxGeometry width="50" height="50" relative="1" as="geometry">
            <mxPoint x="690" y="270" as="sourcePoint" />
            <mxPoint x="740" y="220" as="targetPoint" />
          </mxGeometry>
        </mxCell>
        <mxCell id="WBOdHLledQL_smcE1slE-124" value="" style="endArrow=none;html=1;rounded=0;entryX=1;entryY=0.5;entryDx=0;entryDy=0;" edge="1" parent="1" target="WBOdHLledQL_smcE1slE-118">
          <mxGeometry width="50" height="50" relative="1" as="geometry">
            <mxPoint x="530" y="200" as="sourcePoint" />
            <mxPoint x="740" y="220" as="targetPoint" />
          </mxGeometry>
        </mxCell>
        <mxCell id="WBOdHLledQL_smcE1slE-125" value="" style="endArrow=none;html=1;rounded=0;exitX=0;exitY=0;exitDx=0;exitDy=0;" edge="1" parent="1" source="WBOdHLledQL_smcE1slE-111">
          <mxGeometry width="50" height="50" relative="1" as="geometry">
            <mxPoint x="690" y="270" as="sourcePoint" />
            <mxPoint x="520" y="160" as="targetPoint" />
          </mxGeometry>
        </mxCell>
        <mxCell id="WBOdHLledQL_smcE1slE-128" value="" style="endArrow=none;html=1;rounded=0;entryX=1;entryY=0.5;entryDx=0;entryDy=0;exitX=0.114;exitY=0.985;exitDx=0;exitDy=0;exitPerimeter=0;" edge="1" parent="1" source="WBOdHLledQL_smcE1slE-111" target="WBOdHLledQL_smcE1slE-117">
          <mxGeometry width="50" height="50" relative="1" as="geometry">
            <mxPoint x="690" y="270" as="sourcePoint" />
            <mxPoint x="740" y="220" as="targetPoint" />
          </mxGeometry>
        </mxCell>
        <mxCell id="WBOdHLledQL_smcE1slE-129" value="Store" style="rhombus;whiteSpace=wrap;html=1;rotation=45;" vertex="1" parent="1">
          <mxGeometry x="160" y="120" width="80" height="80" as="geometry" />
        </mxCell>
        <mxCell id="WBOdHLledQL_smcE1slE-131" value="" style="endArrow=none;html=1;rounded=0;entryX=1;entryY=1;entryDx=0;entryDy=0;exitX=0;exitY=0.5;exitDx=0;exitDy=0;" edge="1" parent="1" source="WBOdHLledQL_smcE1slE-129" target="WBOdHLledQL_smcE1slE-1">
          <mxGeometry width="50" height="50" relative="1" as="geometry">
            <mxPoint x="690" y="270" as="sourcePoint" />
            <mxPoint x="740" y="220" as="targetPoint" />
          </mxGeometry>
        </mxCell>
        <mxCell id="WBOdHLledQL_smcE1slE-134" value="Transaction" style="rounded=0;whiteSpace=wrap;html=1;" vertex="1" parent="1">
          <mxGeometry x="200" y="240" width="120" height="60" as="geometry" />
        </mxCell>
        <mxCell id="WBOdHLledQL_smcE1slE-135" value="" style="endArrow=none;html=1;rounded=0;entryX=1;entryY=0.5;entryDx=0;entryDy=0;exitX=0.5;exitY=0;exitDx=0;exitDy=0;" edge="1" parent="1" source="WBOdHLledQL_smcE1slE-134" target="WBOdHLledQL_smcE1slE-129">
          <mxGeometry width="50" height="50" relative="1" as="geometry">
            <mxPoint x="690" y="270" as="sourcePoint" />
            <mxPoint x="740" y="220" as="targetPoint" />
          </mxGeometry>
        </mxCell>
        <mxCell id="WBOdHLledQL_smcE1slE-138" value="TransactionID" style="ellipse;whiteSpace=wrap;html=1;align=center;fontStyle=4;" vertex="1" parent="1">
          <mxGeometry x="260" y="180" width="100" height="40" as="geometry" />
        </mxCell>
        <mxCell id="WBOdHLledQL_smcE1slE-139" value="Money" style="ellipse;whiteSpace=wrap;html=1;align=center;" vertex="1" parent="1">
          <mxGeometry x="325" y="250" width="100" height="40" as="geometry" />
        </mxCell>
        <mxCell id="WBOdHLledQL_smcE1slE-140" value="Date" style="ellipse;whiteSpace=wrap;html=1;align=center;" vertex="1" parent="1">
          <mxGeometry x="280" y="320" width="100" height="40" as="geometry" />
        </mxCell>
        <mxCell id="WBOdHLledQL_smcE1slE-141" value="Description" style="ellipse;whiteSpace=wrap;html=1;align=center;" vertex="1" parent="1">
          <mxGeometry x="170" y="320" width="100" height="40" as="geometry" />
        </mxCell>
        <mxCell id="WBOdHLledQL_smcE1slE-143" value="" style="endArrow=none;html=1;rounded=0;entryX=0.5;entryY=1;entryDx=0;entryDy=0;exitX=0.825;exitY=-0.034;exitDx=0;exitDy=0;exitPerimeter=0;" edge="1" parent="1" source="WBOdHLledQL_smcE1slE-134" target="WBOdHLledQL_smcE1slE-138">
          <mxGeometry width="50" height="50" relative="1" as="geometry">
            <mxPoint x="690" y="270" as="sourcePoint" />
            <mxPoint x="740" y="220" as="targetPoint" />
          </mxGeometry>
        </mxCell>
        <mxCell id="WBOdHLledQL_smcE1slE-144" value="" style="endArrow=none;html=1;rounded=0;exitX=1;exitY=0.5;exitDx=0;exitDy=0;entryX=0;entryY=0.5;entryDx=0;entryDy=0;" edge="1" parent="1" source="WBOdHLledQL_smcE1slE-134" target="WBOdHLledQL_smcE1slE-139">
          <mxGeometry width="50" height="50" relative="1" as="geometry">
            <mxPoint x="690" y="270" as="sourcePoint" />
            <mxPoint x="740" y="220" as="targetPoint" />
          </mxGeometry>
        </mxCell>
        <mxCell id="WBOdHLledQL_smcE1slE-145" value="" style="endArrow=none;html=1;rounded=0;entryX=1;entryY=1;entryDx=0;entryDy=0;exitX=0.5;exitY=0;exitDx=0;exitDy=0;" edge="1" parent="1" source="WBOdHLledQL_smcE1slE-140" target="WBOdHLledQL_smcE1slE-134">
          <mxGeometry width="50" height="50" relative="1" as="geometry">
            <mxPoint x="690" y="270" as="sourcePoint" />
            <mxPoint x="740" y="220" as="targetPoint" />
          </mxGeometry>
        </mxCell>
        <mxCell id="WBOdHLledQL_smcE1slE-146" value="" style="endArrow=none;html=1;rounded=0;entryX=0.25;entryY=1;entryDx=0;entryDy=0;exitX=0.5;exitY=0;exitDx=0;exitDy=0;" edge="1" parent="1" source="WBOdHLledQL_smcE1slE-141" target="WBOdHLledQL_smcE1slE-134">
          <mxGeometry width="50" height="50" relative="1" as="geometry">
            <mxPoint x="690" y="270" as="sourcePoint" />
            <mxPoint x="740" y="220" as="targetPoint" />
          </mxGeometry>
        </mxCell>
        <mxCell id="WBOdHLledQL_smcE1slE-150" value="1" style="text;html=1;align=center;verticalAlign=middle;resizable=0;points=[];autosize=1;strokeColor=none;fillColor=none;" vertex="1" parent="1">
          <mxGeometry x="775" y="88" width="30" height="30" as="geometry" />
        </mxCell>
        <mxCell id="WBOdHLledQL_smcE1slE-152" value="1" style="text;html=1;align=center;verticalAlign=middle;resizable=0;points=[];autosize=1;strokeColor=none;fillColor=none;" vertex="1" parent="1">
          <mxGeometry x="645" y="158" width="30" height="30" as="geometry" />
        </mxCell>
        <mxCell id="WBOdHLledQL_smcE1slE-153" value="M" style="text;html=1;align=center;verticalAlign=middle;resizable=0;points=[];autosize=1;strokeColor=none;fillColor=none;" vertex="1" parent="1">
          <mxGeometry x="225" y="210" width="30" height="30" as="geometry" />
        </mxCell>
        <mxCell id="WBOdHLledQL_smcE1slE-157" value="1" style="text;html=1;align=center;verticalAlign=middle;resizable=0;points=[];autosize=1;strokeColor=none;fillColor=none;" vertex="1" parent="1">
          <mxGeometry x="125" y="98" width="30" height="30" as="geometry" />
        </mxCell>
      </root>
    </mxGraphModel>
  </diagram>
</mxfile>
